<svg version="1.2" xmlns="http://www.w3.org/2000/svg" viewBox="0 0 414 207" width="414" height="207">
	<title>bg-pokeball-svg</title>
	<style>
		.s0 { fill: #1e1e1e } 
	</style>
	<path id="Path 0" class="s0" d="m176.5-204.9c-6.6 1.1-17.2 3.3-23.5 5-6.3 1.6-16.7 5.1-23 7.6-6.3 2.5-14.2 5.9-17.5 7.6-3.3 1.6-9.8 5.4-14.5 8.2-4.7 2.9-12.3 8.1-17 11.6-4.7 3.4-13.8 11.5-20.3 17.8-6.5 6.4-15.1 15.9-19.1 21.1-4 5.2-9.6 13.1-12.3 17.5-2.8 4.4-7 12.1-9.5 17-2.5 5-6.2 13.5-8.3 19-2.1 5.5-5.2 15.8-7 23-1.8 7.2-3.5 15.6-3.9 18.8l-0.6 5.7h101c2.5-8.9 4.5-14.7 6.2-18.5 1.7-3.8 5.4-10.6 8.2-15 2.9-4.4 8.3-11.3 12.2-15.4 3.8-4 9.8-9.5 13.4-12.2 3.6-2.7 9.9-6.7 14-8.8 4.1-2.2 10.5-5.1 14.3-6.5 3.7-1.4 10-3.4 14-4.3 5.3-1.3 11.5-1.8 23.7-1.8 12.2 0 18.4 0.5 23.8 1.8 3.9 0.9 10.2 2.8 14 4.2 3.7 1.5 10.1 4.4 14.2 6.6 4.1 2.2 10.6 6.4 14.5 9.4 3.9 2.9 9.3 7.7 12.1 10.7 2.8 2.9 7 8 9.5 11.3 2.4 3.3 6.3 9.6 8.5 14 2.3 4.4 5.4 11.7 6.8 16.3l2.6 8.2h101c-0.5-5-1.9-11.7-3.3-18-1.4-6.3-4.2-16.4-6.2-22.5-1.9-6.1-6.3-16.6-9.6-23.5-3.3-6.9-9-17-12.6-22.5-3.6-5.5-9.6-13.8-13.3-18.5-3.7-4.7-11.2-12.8-16.6-18-5.5-5.2-13.5-12.2-17.9-15.6-4.4-3.4-11.4-8.3-15.5-10.9-4.1-2.6-12.2-7.2-18-10.1-5.8-2.9-14.8-6.9-20-8.9-5.2-2-14.4-4.9-20.5-6.5-6.1-1.7-17.1-3.9-24.5-5-9.9-1.5-18-2-30.5-1.9-11.1 0.1-21.2 0.8-29 2zm-176.5 231.7c0 0.9 1.1 7.1 2.5 13.7 1.4 6.6 4 16.7 5.9 22.5 1.9 5.8 5.3 14.8 7.6 20 2.3 5.2 5.8 12.4 7.8 16 2 3.6 6.1 10.3 9.3 15 3.1 4.7 7.6 11 10 14 2.4 3 8.6 9.9 13.9 15.4 5.2 5.4 12.6 12.4 16.5 15.6 3.8 3.1 11.4 8.7 16.7 12.4 5.4 3.6 15.6 9.5 22.8 13.1 7.1 3.6 18.7 8.5 25.7 10.9 7.1 2.4 17.3 5.3 22.8 6.4 5.5 1.2 14.4 2.8 19.7 3.6 5.9 1 16.1 1.6 25.8 1.6 12.6 0 19.2-0.5 30.7-2.5 8.2-1.4 17.5-3.3 20.8-4.1 3.3-0.8 10.3-2.9 15.5-4.6 5.2-1.7 14.4-5.4 20.5-8.3 6.1-2.8 14.4-7.1 18.5-9.5 4.1-2.3 12.2-7.7 18-11.9 5.8-4.1 16.2-13.2 23.1-20.1 6.9-6.9 15.7-16.8 19.6-22 3.8-5.2 8.6-12.1 10.6-15.2 2.1-3.2 6.4-11.1 9.6-17.5 3.2-6.5 7.9-17.9 10.4-25.3 2.5-7.4 5.7-19 7.1-25.7 1.5-6.8 2.6-13 2.6-13.8 0-1.3-6.3-1.5-50.5-1.5h-50.5c-4.1 12.8-6.6 19.2-8.2 22.5-1.7 3.3-4.8 8.7-7.1 12-2.2 3.3-6.6 8.9-9.7 12.5-3.1 3.6-9 9.1-13.1 12.2-4.1 3.1-10.1 7.3-13.4 9.3-3.3 1.9-9.6 4.9-14 6.6-4.4 1.7-11.6 4-16 5.2-6.5 1.7-11.1 2.1-24 2.1-11.9 0.1-17.9-0.4-23.3-1.7-3.9-0.9-10.9-3.1-15.5-4.7-4.5-1.7-11.1-4.7-14.7-6.7-3.6-1.9-9.7-5.9-13.5-8.8-3.9-2.9-9.4-7.9-12.4-11.1-3-3.3-7.2-8.4-9.5-11.4-2.2-3-5.9-9.1-8.2-13.5-2.3-4.4-5.4-11.7-6.8-16.2l-2.6-8.3c-97.9 0-101 0.1-101 1.8zm192.5-93.2c-3.8 0.8-9.7 2.8-13 4.3-3.3 1.5-8.7 4.5-12 6.8-3.3 2.2-8.6 6.9-11.8 10.4-3.2 3.6-7.5 9.9-9.7 14.4-2.2 4.4-4.7 10.7-5.6 14-0.9 3.6-1.5 10.3-1.5 16.5 0 6.4 0.6 12.8 1.5 16.5 0.9 3.3 3.4 9.6 5.5 14 2.5 5 6.3 10.5 10.3 14.9 3.4 3.8 9.5 8.9 13.3 11.5 3.9 2.6 10.7 5.9 15.5 7.5 5.6 1.8 11.5 3 17.5 3.3 5.2 0.3 12 0.1 16-0.6 3.8-0.7 10.4-2.6 14.5-4.2 4.1-1.7 10.2-5 13.5-7.3 3.3-2.4 8.6-7.2 11.8-10.7 3.2-3.6 7.5-9.9 9.7-14.4 2.2-4.4 4.7-10.7 5.6-14 0.9-3.6 1.5-10.2 1.5-16.5 0-6.3-0.6-12.9-1.5-16.5-0.9-3.3-3.4-9.6-5.6-14-2.2-4.5-6.5-10.8-9.7-14.4-3.2-3.5-8.5-8.2-11.8-10.4-3.3-2.3-8.7-5.3-12-6.8-3.3-1.5-9.5-3.5-13.8-4.3-4.2-0.9-10.7-1.6-14.4-1.5-3.8 0-10 0.7-13.8 1.5z"/>
</svg>